<svg width="14" height="14" viewBox="0 0 14 14" fill="none" xmlns="http://www.w3.org/2000/svg">
<path fill-rule="evenodd" clip-rule="evenodd" d="M12.6054 5.94336C13.0152 5.94336 13.2201 5.94336 13.3745 6.02779C13.49 6.09099 13.5851 6.18601 13.6483 6.30158C13.7327 6.45598 13.7327 6.66088 13.7327 7.07069L13.7327 11.4266C13.7327 11.8364 13.7327 12.0413 13.6483 12.1957C13.5851 12.3112 13.49 12.4063 13.3745 12.4695C13.2201 12.5539 13.0152 12.5539 12.6054 12.5539C12.1956 12.5539 11.9906 12.5539 11.8362 12.4695C11.7207 12.4063 11.6257 12.3112 11.5625 12.1957C11.478 12.0413 11.478 11.8364 11.478 11.4266L11.478 7.07069C11.478 6.66088 11.478 6.45598 11.5625 6.30158C11.6257 6.18601 11.7207 6.09099 11.8362 6.02779C11.9906 5.94336 12.1955 5.94336 12.6054 5.94336Z" fill="#626675"/>
<circle cx="12.5389" cy="3.01743" r="1.45786" fill="#626675"/>
<path d="M7.41734 2.96311L10.8894 12.2507C10.9442 12.3973 10.8358 12.5535 10.6793 12.5535H8.97243C8.73696 12.5535 8.52658 12.4064 8.44577 12.1852L5.8259 5.01485C5.79146 4.92059 5.66005 4.91556 5.61849 5.0069L3.27447 10.1597C3.20691 10.3082 3.31547 10.4769 3.47862 10.4769H5.52015C5.7878 10.4769 5.97694 10.7389 5.8927 10.9929L5.48989 12.2077C5.42143 12.4141 5.2284 12.5535 5.0109 12.5535H0.847727C0.277498 12.5535 -0.102473 11.9647 0.13243 11.4451L3.99834 2.89384C4.17984 2.49237 4.57961 2.23438 5.0202 2.23438H6.36691C6.83479 2.23438 7.2535 2.52486 7.41734 2.96311Z" fill="#626675"/>
</svg>
